<?xml version="1.0" encoding="UTF-8" standalone="no"?>
<svg
   xmlns:dc="http://purl.org/dc/elements/1.1/"
   xmlns:cc="http://creativecommons.org/ns#"
   xmlns:rdf="http://www.w3.org/1999/02/22-rdf-syntax-ns#"
   xmlns:svg="http://www.w3.org/2000/svg"
   xmlns="http://www.w3.org/2000/svg"
   xmlns:sodipodi="http://sodipodi.sourceforge.net/DTD/sodipodi-0.dtd"
   xmlns:inkscape="http://www.inkscape.org/namespaces/inkscape"
   width="40.333305mm"
   height="19.11096mm"
   viewBox="0 0 142.91329 67.715995"
   id="svg2"
   version="1.1"
   style="enable-background:new"
   inkscape:version="0.91 r"
   sodipodi:docname="echo-logo1.svg">
  <sodipodi:namedview
     pagecolor="#ffffff"
     bordercolor="#666666"
     borderopacity="1"
     objecttolerance="10"
     gridtolerance="10"
     guidetolerance="10"
     inkscape:pageopacity="0"
     inkscape:pageshadow="2"
     inkscape:window-width="1920"
     inkscape:window-height="1005"
     id="namedview64"
     showgrid="false"
     inkscape:zoom="4"
     inkscape:cx="21.679838"
     inkscape:cy="5.0034807"
     inkscape:window-x="0"
     inkscape:window-y="25"
     inkscape:window-maximized="1"
     inkscape:current-layer="svg2"
     inkscape:snap-object-midpoints="true"
     fit-margin-top="0"
     fit-margin-left="0"
     fit-margin-right="0"
     fit-margin-bottom="0" />
  <defs
     id="defs4" />
  <metadata
     id="metadata7">
    <rdf:RDF>
      <cc:Work
         rdf:about="">
        <dc:format>image/svg+xml</dc:format>
        <dc:type
           rdf:resource="http://purl.org/dc/dcmitype/StillImage" />
        <dc:title></dc:title>
      </cc:Work>
    </rdf:RDF>
  </metadata>
  <g
     id="layer3"
     transform="translate(-432.48383,-664.16111)">
    <rect
       style="color:#000000;clip-rule:nonzero;display:inline;overflow:visible;visibility:visible;opacity:1;isolation:auto;mix-blend-mode:normal;color-interpolation:sRGB;color-interpolation-filters:linearRGB;solid-color:#000000;solid-opacity:1;fill:#000000;fill-opacity:1;fill-rule:nonzero;stroke:none;stroke-width:2.87778592;stroke-linecap:round;stroke-linejoin:round;stroke-miterlimit:4;stroke-dasharray:none;stroke-dashoffset:0;stroke-opacity:1;color-rendering:auto;image-rendering:auto;shape-rendering:auto;text-rendering:auto;enable-background:accumulate"
       id="rect4879"
       width="202.10527"
       height="97.119934"
       x="405.77527"
       y="489.27228" />
  </g>
  <path
     id="path4859"
     d="m 35.568241,-107.17545 c -4.50722,-4.50729 -7.29505,-10.73403 -7.29505,-17.61188 0,-13.75572 11.15121,-24.90694 24.90693,-24.90694 13.75571,0 24.90693,11.15122 24.90693,24.90694 0,13.75571 -11.15122,24.906928 -24.90693,24.906928"
     style="color:#000000;clip-rule:nonzero;display:inline;overflow:visible;visibility:visible;opacity:1;isolation:auto;mix-blend-mode:normal;color-interpolation:sRGB;color-interpolation-filters:linearRGB;solid-color:#000000;solid-opacity:1;fill:none;fill-opacity:1;fill-rule:nonzero;stroke:#2a3b4d;stroke-width:3.52802634;stroke-linecap:round;stroke-linejoin:miter;stroke-miterlimit:4;stroke-dasharray:none;stroke-dashoffset:0;stroke-opacity:1;color-rendering:auto;image-rendering:auto;shape-rendering:auto;text-rendering:auto;enable-background:accumulate"
     inkscape:connector-curvature="0" />
  <path
     style="color:#000000;clip-rule:nonzero;display:inline;overflow:visible;visibility:visible;opacity:1;isolation:auto;mix-blend-mode:normal;color-interpolation:sRGB;color-interpolation-filters:linearRGB;solid-color:#000000;solid-opacity:1;fill:none;fill-opacity:1;fill-rule:nonzero;stroke:#151d26;stroke-width:4.29948759;stroke-linecap:round;stroke-linejoin:miter;stroke-miterlimit:4;stroke-dasharray:none;stroke-dashoffset:0;stroke-opacity:1;color-rendering:auto;image-rendering:auto;shape-rendering:auto;text-rendering:auto;enable-background:accumulate"
     d="m 74.643171,-146.25014 c 5.49273,5.49286 8.89017,13.08117 8.89017,21.46299 0,16.76365 -13.58955,30.353288 -30.3532,30.353288 -16.76362,0 -30.35324,-13.589638 -30.35324,-30.353288 0,-16.76363 13.58962,-30.35326 30.35324,-30.35326"
     id="path4861"
     inkscape:connector-curvature="0" />
  <flowRoot
     style="font-style:normal;font-variant:normal;font-weight:normal;font-stretch:normal;font-size:40px;line-height:125%;font-family:'Emilys Candy';-inkscape-font-specification:'Emilys Candy';letter-spacing:0px;word-spacing:0px;fill:#000000;fill-opacity:1;stroke:none"
     id="flowRoot4136"
     xml:space="preserve"
     transform="translate(-432.48383,-664.16111)"><flowRegion
       id="flowRegion4138"><rect
         style="font-style:normal;font-variant:normal;font-weight:normal;font-stretch:normal;font-family:'Emilys Candy';-inkscape-font-specification:'Emilys Candy'"
         y="41.199509"
         x="48.487324"
         height="105.05586"
         width="207.08127"
         id="rect4140" /></flowRegion><flowPara
       id="flowPara4142" /></flowRoot>  <text
     sodipodi:linespacing="125%"
     id="text4666"
     y="-6.4965606"
     x="-86.786819"
     style="font-style:normal;font-weight:normal;font-size:40px;line-height:125%;font-family:sans-serif;letter-spacing:0px;word-spacing:0px;fill:#000000;fill-opacity:1;stroke:none"
     xml:space="preserve"><tspan
       y="-6.4965606"
       x="-86.786819"
       id="tspan4668" /></text>
  <text
     sodipodi:linespacing="125%"
     xml:space="preserve"
     style="font-style:normal;font-weight:normal;font-size:40px;line-height:125%;font-family:sans-serif;letter-spacing:0px;word-spacing:0px;fill:#000000;fill-opacity:1;stroke:none"
     x="-70.602615"
     y="223.92726"
     id="text4693"><tspan
       id="tspan4695"
       x="-70.602615"
       y="223.92726" /></text>
  <g
     id="g3878"
     style="stroke:#729fcf"
     transform="translate(-409.38786,-229.36103)">
    <path
       style="color:#000000;display:inline;overflow:visible;visibility:visible;opacity:1;fill:none;stroke:#e8eff8;stroke-width:4.29948759;stroke-linecap:round;stroke-linejoin:miter;stroke-miterlimit:4;stroke-dasharray:none;stroke-dashoffset:0;stroke-opacity:1;enable-background:accumulate"
       d="m 151.84569,83.11089 c 5.49273,5.49286 8.89016,13.08117 8.89016,21.46299 0,16.76365 -13.58954,30.35329 -30.35319,30.35329 -16.76362,0 -30.35323,-13.58964 -30.35323,-30.35329 0,-16.76363 13.58961,-30.35326 30.35323,-30.35326"
       id="path6157"
       inkscape:connector-curvature="0" />
    <g
       id="g3859"
       style="opacity:1;stroke:#cbdbed;stroke-opacity:1">
      <path
         inkscape:connector-curvature="0"
         style="color:#000000;display:inline;overflow:visible;visibility:visible;opacity:1;fill:none;stroke:#cbdbed;stroke-width:3.52802634;stroke-linecap:round;stroke-linejoin:miter;stroke-miterlimit:4;stroke-dasharray:none;stroke-dashoffset:0;stroke-opacity:1;enable-background:accumulate"
         d="m 112.77076,122.18558 c -4.50722,-4.50729 -7.29505,-10.73403 -7.29505,-17.61188 0,-13.75572 11.15121,-24.90694 24.90693,-24.90694 13.75571,0 24.90693,11.15122 24.90693,24.90694 0,13.75571 -11.15122,24.90693 -24.90693,24.90693"
         id="path6155" />
    </g>
    <path
       inkscape:connector-curvature="0"
       id="path6153"
       d="m 116.19407,90.38516 c 3.6312,-3.63118 8.64764,-5.87713 14.18865,-5.87713 11.08201,0 20.06577,8.98375 20.06577,20.06577 0,11.08201 -8.98376,20.06576 -20.06577,20.06576 -11.08201,0 -20.06578,-8.98375 -20.06578,-20.06576"
       style="color:#000000;display:inline;overflow:visible;visibility:visible;opacity:1;fill:none;stroke:#9ebede;stroke-width:2.84228325;stroke-linecap:round;stroke-linejoin:miter;stroke-miterlimit:4;stroke-dasharray:none;stroke-dashoffset:0;stroke-opacity:1;enable-background:accumulate" />
  </g>
  <g
     id="g3863"
     transform="translate(-409.38786,-229.36103)">
    <path
       id="path6159"
       d="m 219.01611,104.5738 a 15.527195,15.527195 0 0 1 -15.5272,15.52719 15.527195,15.527195 0 0 1 -15.52719,-15.52719 15.527195,15.527195 0 0 1 15.52719,-15.5272 15.527195,15.527195 0 0 1 15.5272,15.5272 z"
       style="color:#000000;display:inline;overflow:visible;visibility:visible;fill:none;stroke:#000000;stroke-width:2.19940114;stroke-linecap:round;stroke-linejoin:miter;stroke-miterlimit:4;stroke-dasharray:none;stroke-dashoffset:0;stroke-opacity:1;enable-background:accumulate"
       inkscape:connector-curvature="0" />
    <path
       id="path6161"
       d="m 182.46294,120.10072 0,-15.52692 c 0,-8.57543 -6.95177,-15.5272 -15.52719,-15.5272 -8.57543,0 -15.5272,6.95177 -15.5272,15.5272 l 0,15.52692"
       style="color:#000000;display:inline;overflow:visible;visibility:visible;fill:none;stroke:#000000;stroke-width:2.19940114;stroke-linecap:round;stroke-linejoin:miter;stroke-miterlimit:4;stroke-dasharray:none;stroke-dashoffset:0;stroke-opacity:1;enable-background:accumulate"
       inkscape:connector-curvature="0" />
    <path
       id="path6163"
       d="m 141.36196,115.55318 c -2.80987,2.80987 -6.69167,4.54781 -10.97938,4.54781 -8.57543,0 -15.52719,-6.95177 -15.52719,-15.52719 0,-8.57543 6.95176,-15.5272 15.52719,-15.5272 4.28771,0 8.16951,1.73794 10.97938,4.54781"
       style="color:#000000;display:inline;overflow:visible;visibility:visible;fill:none;stroke:#000000;stroke-width:2.19940114;stroke-linecap:round;stroke-linejoin:miter;stroke-miterlimit:4;stroke-dasharray:none;stroke-dashoffset:0;stroke-opacity:1;enable-background:accumulate"
       inkscape:connector-curvature="0" />
    <path
       style="color:#000000;display:inline;overflow:visible;visibility:visible;fill:none;stroke:#000000;stroke-width:2.19940114;stroke-linecap:round;stroke-linejoin:miter;stroke-miterlimit:4;stroke-dasharray:none;stroke-dashoffset:0;stroke-opacity:1;enable-background:accumulate"
       d="m 151.40855,120.10072 0,-15.52692 0,-34.09742"
       id="path6165"
       inkscape:connector-curvature="0" />
    <path
       style="color:#000000;display:inline;overflow:visible;visibility:visible;fill:none;stroke:#000000;stroke-width:2.19940114;stroke-linecap:round;stroke-linejoin:miter;stroke-miterlimit:4;stroke-dasharray:none;stroke-dashoffset:0;stroke-opacity:1;enable-background:accumulate"
       d="m 104.8088,115.55318 c -2.80988,2.80987 -6.69166,4.54781 -10.97938,4.54781 -8.57544,0 -15.5272,-6.95177 -15.5272,-15.52719 0,-8.57543 6.95176,-15.5272 15.5272,-15.5272 8.57542,0 15.52719,6.95177 15.52719,15.5272"
       id="path6167"
       inkscape:connector-curvature="0" />
    <path
       id="path6169"
       d="m 79.34418,104.5969 29.97354,0"
       style="color:#000000;display:inline;overflow:visible;visibility:visible;fill:none;stroke:#000000;stroke-width:2.19940114;stroke-linecap:round;stroke-linejoin:miter;stroke-miterlimit:4;stroke-dasharray:none;stroke-dashoffset:0;stroke-opacity:1;enable-background:accumulate"
       inkscape:connector-curvature="0" />
  </g>
  <g
     id="g4162"
     transform="translate(-409.38786,-69.361032)">
    <path
       inkscape:connector-curvature="0"
       style="color:#000000;display:inline;overflow:visible;visibility:visible;fill:none;stroke:#000000;stroke-width:2.19940114;stroke-linecap:round;stroke-linejoin:miter;stroke-miterlimit:4;stroke-dasharray:none;stroke-dashoffset:0;stroke-opacity:1;enable-background:accumulate"
       d="m 219.01611,104.5738 a 15.527195,15.527195 0 0 1 -15.5272,15.52719 15.527195,15.527195 0 0 1 -15.52719,-15.52719 15.527195,15.527195 0 0 1 15.52719,-15.5272 15.527195,15.527195 0 0 1 15.5272,15.5272 z"
       id="path4164" />
    <path
       inkscape:connector-curvature="0"
       style="color:#000000;display:inline;overflow:visible;visibility:visible;fill:none;stroke:#000000;stroke-width:2.19940114;stroke-linecap:round;stroke-linejoin:miter;stroke-miterlimit:4;stroke-dasharray:none;stroke-dashoffset:0;stroke-opacity:1;enable-background:accumulate"
       d="m 182.46294,120.10072 0,-15.52692 c 0,-8.57543 -6.95177,-15.5272 -15.52719,-15.5272 -8.57543,0 -15.5272,6.95177 -15.5272,15.5272 l 0,15.52692"
       id="path4166" />
    <path
       inkscape:connector-curvature="0"
       style="color:#000000;display:inline;overflow:visible;visibility:visible;fill:none;stroke:#000000;stroke-width:2.19940114;stroke-linecap:round;stroke-linejoin:miter;stroke-miterlimit:4;stroke-dasharray:none;stroke-dashoffset:0;stroke-opacity:1;enable-background:accumulate"
       d="m 141.36196,115.55318 c -2.80987,2.80987 -6.69167,4.54781 -10.97938,4.54781 -8.57543,0 -15.52719,-6.95177 -15.52719,-15.52719 0,-8.57543 6.95176,-15.5272 15.52719,-15.5272 4.28771,0 8.16951,1.73794 10.97938,4.54781"
       id="path4168" />
    <path
       inkscape:connector-curvature="0"
       id="path4170"
       d="m 151.40855,120.10072 0,-15.52692 0,-34.09742"
       style="color:#000000;display:inline;overflow:visible;visibility:visible;fill:none;stroke:#000000;stroke-width:2.19940114;stroke-linecap:round;stroke-linejoin:miter;stroke-miterlimit:4;stroke-dasharray:none;stroke-dashoffset:0;stroke-opacity:1;enable-background:accumulate" />
    <path
       inkscape:connector-curvature="0"
       id="path4172"
       d="m 104.8088,115.55318 c -2.80988,2.80987 -6.69166,4.54781 -10.97938,4.54781 -8.57544,0 -15.5272,-6.95177 -15.5272,-15.52719 0,-8.57543 6.95176,-15.5272 15.5272,-15.5272 8.57542,0 15.52719,6.95177 15.52719,15.5272"
       style="color:#000000;display:inline;overflow:visible;visibility:visible;fill:none;stroke:#000000;stroke-width:2.19940114;stroke-linecap:round;stroke-linejoin:miter;stroke-miterlimit:4;stroke-dasharray:none;stroke-dashoffset:0;stroke-opacity:1;enable-background:accumulate" />
    <path
       inkscape:connector-curvature="0"
       style="color:#000000;display:inline;overflow:visible;visibility:visible;fill:none;stroke:#000000;stroke-width:2.19940114;stroke-linecap:round;stroke-linejoin:miter;stroke-miterlimit:4;stroke-dasharray:none;stroke-dashoffset:0;stroke-opacity:1;enable-background:accumulate"
       d="m 79.34418,104.5969 29.97354,0"
       id="path4174" />
  </g>
  <path
     id="path4180"
     d="m 74.643171,-146.25014 c 5.49273,5.49286 8.89017,13.08117 8.89017,21.46299 0,16.76365 -13.58955,30.353288 -30.3532,30.353288 -16.76362,0 -30.35324,-13.589638 -30.35324,-30.353288 0,-16.76363 13.58962,-30.35326 30.35324,-30.35326"
     style="color:#000000;clip-rule:nonzero;display:inline;overflow:visible;visibility:visible;opacity:1;isolation:auto;mix-blend-mode:normal;color-interpolation:sRGB;color-interpolation-filters:linearRGB;solid-color:#000000;solid-opacity:1;fill:none;fill-opacity:1;fill-rule:nonzero;stroke:#151d26;stroke-width:4.29948759;stroke-linecap:round;stroke-linejoin:miter;stroke-miterlimit:4;stroke-dasharray:none;stroke-dashoffset:0;stroke-opacity:1;color-rendering:auto;image-rendering:auto;shape-rendering:auto;text-rendering:auto;enable-background:accumulate"
     inkscape:connector-curvature="0" />
  <g
     id="g4189"
     transform="translate(-409.38786,-69.360932)">
    <path
       style="color:#000000;display:inline;overflow:visible;visibility:visible;opacity:0.6;fill:none;stroke:#729fcf;stroke-width:2.84228325;stroke-linecap:round;stroke-linejoin:miter;stroke-miterlimit:4;stroke-dasharray:none;stroke-dashoffset:0;stroke-opacity:1;enable-background:accumulate"
       d="m 448.37941,90.38516 c 3.6312,-3.63118 8.64764,-5.87713 14.18865,-5.87713 11.08201,0 20.06577,8.98375 20.06577,20.06577 0,11.08201 -8.98376,20.06576 -20.06577,20.06576 -11.08201,0 -20.06578,-8.98375 -20.06578,-20.06576"
       id="path4191"
       inkscape:connector-curvature="0" />
    <path
       style="color:#000000;display:inline;overflow:visible;visibility:visible;opacity:0.4;fill:none;stroke:#729fcf;stroke-width:3.52802634;stroke-linecap:round;stroke-linejoin:miter;stroke-miterlimit:4;stroke-dasharray:none;stroke-dashoffset:0;stroke-opacity:1;enable-background:accumulate"
       d="m 444.9561,122.18558 c -4.50722,-4.50729 -7.29505,-10.73403 -7.29505,-17.61188 0,-13.75572 11.15121,-24.90694 24.90693,-24.90694 13.75571,0 24.90693,11.15122 24.90693,24.90694 0,13.75571 -11.15122,24.90693 -24.90693,24.90693"
       id="path4193"
       inkscape:connector-curvature="0" />
    <path
       style="color:#000000;display:inline;overflow:visible;visibility:visible;opacity:0.2;fill:none;stroke:#729fcf;stroke-width:4.29948759;stroke-linecap:round;stroke-linejoin:miter;stroke-miterlimit:4;stroke-dasharray:none;stroke-dashoffset:0;stroke-opacity:1;enable-background:accumulate"
       d="m 484.03103,83.11089 c 5.49273,5.49286 8.89017,13.08117 8.89017,21.46299 0,16.76365 -13.58955,30.35329 -30.3532,30.35329 -16.76362,0 -30.35324,-13.58964 -30.35324,-30.35329 0,-16.76363 13.58962,-30.35326 30.35324,-30.35326"
       id="path4195"
       inkscape:connector-curvature="0" />
  </g>
  <g
     id="g4184"
     transform="translate(-409.38786,-229.36103)">
    <path
       id="path4857"
       d="m 448.37941,90.38516 c 3.6312,-3.63118 8.64764,-5.87713 14.18865,-5.87713 11.08201,0 20.06577,8.98375 20.06577,20.06577 0,11.08201 -8.98376,20.06576 -20.06577,20.06576 -11.08201,0 -20.06578,-8.98375 -20.06578,-20.06576"
       style="color:#000000;clip-rule:nonzero;display:inline;overflow:visible;visibility:visible;opacity:1;isolation:auto;mix-blend-mode:normal;color-interpolation:sRGB;color-interpolation-filters:linearRGB;solid-color:#000000;solid-opacity:1;fill:none;fill-opacity:1;fill-rule:nonzero;stroke:#466380;stroke-width:2.84228325;stroke-linecap:round;stroke-linejoin:miter;stroke-miterlimit:4;stroke-dasharray:none;stroke-dashoffset:0;stroke-opacity:1;color-rendering:auto;image-rendering:auto;shape-rendering:auto;text-rendering:auto;enable-background:accumulate"
       inkscape:connector-curvature="0" />
    <path
       id="path4178"
       d="m 444.9561,122.18558 c -4.50722,-4.50729 -7.29505,-10.73403 -7.29505,-17.61188 0,-13.75572 11.15121,-24.90694 24.90693,-24.90694 13.75571,0 24.90693,11.15122 24.90693,24.90694 0,13.75571 -11.15122,24.90693 -24.90693,24.90693"
       style="color:#000000;clip-rule:nonzero;display:inline;overflow:visible;visibility:visible;opacity:1;isolation:auto;mix-blend-mode:normal;color-interpolation:sRGB;color-interpolation-filters:linearRGB;solid-color:#000000;solid-opacity:1;fill:none;fill-opacity:1;fill-rule:nonzero;stroke:#2a3b4d;stroke-width:3.52802634;stroke-linecap:round;stroke-linejoin:miter;stroke-miterlimit:4;stroke-dasharray:none;stroke-dashoffset:0;stroke-opacity:1;color-rendering:auto;image-rendering:auto;shape-rendering:auto;text-rendering:auto;enable-background:accumulate"
       inkscape:connector-curvature="0" />
    <path
       id="path4182"
       d="m 484.03103,83.11089 c 5.49273,5.49286 8.89017,13.08117 8.89017,21.46299 0,16.76365 -13.58955,30.35329 -30.3532,30.35329 -16.76362,0 -30.35324,-13.58964 -30.35324,-30.35329 0,-16.76363 13.58962,-30.35326 30.35324,-30.35326"
       style="color:#000000;clip-rule:nonzero;display:inline;overflow:visible;visibility:visible;opacity:1;isolation:auto;mix-blend-mode:normal;color-interpolation:sRGB;color-interpolation-filters:linearRGB;solid-color:#000000;solid-opacity:1;fill:none;fill-opacity:1;fill-rule:nonzero;stroke:#151d26;stroke-width:4.29948759;stroke-linecap:round;stroke-linejoin:miter;stroke-miterlimit:4;stroke-dasharray:none;stroke-dashoffset:0;stroke-opacity:1;color-rendering:auto;image-rendering:auto;shape-rendering:auto;text-rendering:auto;enable-background:accumulate"
       inkscape:connector-curvature="0" />
  </g>
  <g
     transform="translate(-741.5732,-69.360932)"
     id="g4207">
    <path
       inkscape:connector-curvature="0"
       id="path4209"
       d="m 448.37941,90.38516 c 3.6312,-3.63118 8.64764,-5.87713 14.18865,-5.87713 11.08201,0 20.06577,8.98375 20.06577,20.06577 0,11.08201 -8.98376,20.06576 -20.06577,20.06576 -11.08201,0 -20.06578,-8.98375 -20.06578,-20.06576"
       style="color:#000000;display:inline;overflow:visible;visibility:visible;opacity:0.6;fill:none;stroke:#729fcf;stroke-width:2.84228325;stroke-linecap:round;stroke-linejoin:miter;stroke-miterlimit:4;stroke-dasharray:none;stroke-dashoffset:0;stroke-opacity:1;enable-background:accumulate" />
    <path
       inkscape:connector-curvature="0"
       id="path4211"
       d="m 444.9561,122.18558 c -4.50722,-4.50729 -7.29505,-10.73403 -7.29505,-17.61188 0,-13.75572 11.15121,-24.90694 24.90693,-24.90694 13.75571,0 24.90693,11.15122 24.90693,24.90694 0,13.75571 -11.15122,24.90693 -24.90693,24.90693"
       style="color:#000000;display:inline;overflow:visible;visibility:visible;opacity:0.4;fill:none;stroke:#729fcf;stroke-width:3.52802634;stroke-linecap:round;stroke-linejoin:miter;stroke-miterlimit:4;stroke-dasharray:none;stroke-dashoffset:0;stroke-opacity:1;enable-background:accumulate" />
    <path
       inkscape:connector-curvature="0"
       id="path4213"
       d="m 484.03103,83.11089 c 5.49273,5.49286 8.89017,13.08117 8.89017,21.46299 0,16.76365 -13.58955,30.35329 -30.3532,30.35329 -16.76362,0 -30.35324,-13.58964 -30.35324,-30.35329 0,-16.76363 13.58962,-30.35326 30.35324,-30.35326"
       style="color:#000000;display:inline;overflow:visible;visibility:visible;opacity:0.2;fill:none;stroke:#729fcf;stroke-width:4.29948759;stroke-linecap:round;stroke-linejoin:miter;stroke-miterlimit:4;stroke-dasharray:none;stroke-dashoffset:0;stroke-opacity:1;enable-background:accumulate" />
  </g>
  <g
     id="g3918"
     transform="translate(-409.38786,-229.36103)">
    <path
       style="color:#000000;display:inline;overflow:visible;visibility:visible;fill:none;stroke:#ffffff;stroke-width:2.19940114;stroke-linecap:round;stroke-linejoin:miter;stroke-miterlimit:4;stroke-dasharray:none;stroke-dashoffset:0;stroke-opacity:1;enable-background:accumulate"
       d="m 551.20145,104.5738 a 15.527195,15.527195 0 0 1 -15.5272,15.52719 15.527195,15.527195 0 0 1 -15.52719,-15.52719 15.527195,15.527195 0 0 1 15.52719,-15.5272 15.527195,15.527195 0 0 1 15.5272,15.5272 z"
       id="path4863"
       inkscape:connector-curvature="0" />
    <path
       style="color:#000000;display:inline;overflow:visible;visibility:visible;fill:none;stroke:#ffffff;stroke-width:2.19940114;stroke-linecap:round;stroke-linejoin:miter;stroke-miterlimit:4;stroke-dasharray:none;stroke-dashoffset:0;stroke-opacity:1;enable-background:accumulate"
       d="m 514.64828,120.10072 0,-15.52692 c 0,-8.57543 -6.95176,-15.5272 -15.52719,-15.5272 -8.57543,0 -15.5272,6.95177 -15.5272,15.5272 l 0,15.52692"
       id="path4865"
       inkscape:connector-curvature="0" />
    <path
       style="color:#000000;display:inline;overflow:visible;visibility:visible;fill:none;stroke:#ffffff;stroke-width:2.19940114;stroke-linecap:round;stroke-linejoin:miter;stroke-miterlimit:4;stroke-dasharray:none;stroke-dashoffset:0;stroke-opacity:1;enable-background:accumulate"
       d="m 473.5473,115.55318 c -2.80987,2.80987 -6.69167,4.54781 -10.97938,4.54781 -8.57543,0 -15.52719,-6.95177 -15.52719,-15.52719 0,-8.57543 6.95176,-15.5272 15.52719,-15.5272 4.28771,0 8.16951,1.73794 10.97938,4.54781"
       id="path4867"
       inkscape:connector-curvature="0" />
    <path
       id="path4869"
       d="m 483.59389,120.10072 0,-15.52692 0,-34.09742"
       style="color:#000000;display:inline;overflow:visible;visibility:visible;fill:none;stroke:#ffffff;stroke-width:2.19940114;stroke-linecap:round;stroke-linejoin:miter;stroke-miterlimit:4;stroke-dasharray:none;stroke-dashoffset:0;stroke-opacity:1;enable-background:accumulate"
       inkscape:connector-curvature="0" />
    <path
       id="path4871"
       d="m 436.99414,115.55318 c -2.80988,2.80987 -6.69167,4.54781 -10.97939,4.54781 -8.57542,0 -15.52719,-6.95177 -15.52719,-15.52719 0,-8.57543 6.95177,-15.5272 15.52719,-15.5272 8.57543,0 15.5272,6.95177 15.5272,15.5272"
       style="color:#000000;display:inline;overflow:visible;visibility:visible;fill:none;stroke:#ffffff;stroke-width:2.19940114;stroke-linecap:round;stroke-linejoin:miter;stroke-miterlimit:4;stroke-dasharray:none;stroke-dashoffset:0;stroke-opacity:1;enable-background:accumulate"
       inkscape:connector-curvature="0" />
    <path
       style="color:#000000;display:inline;overflow:visible;visibility:visible;fill:none;stroke:#ffffff;stroke-width:2.19940114;stroke-linecap:round;stroke-linejoin:miter;stroke-miterlimit:4;stroke-dasharray:none;stroke-dashoffset:0;stroke-opacity:1;enable-background:accumulate"
       d="m 411.52953,104.5969 29.97354,0"
       id="path4873"
       inkscape:connector-curvature="0" />
  </g>
  <g
     id="g4148"
     transform="translate(-409.38786,-69.361032)"
     style="stroke:#ffffff;stroke-opacity:1">
    <path
       inkscape:connector-curvature="0"
       id="path4150"
       d="m 551.20145,104.5738 a 15.527195,15.527195 0 0 1 -15.5272,15.52719 15.527195,15.527195 0 0 1 -15.52719,-15.52719 15.527195,15.527195 0 0 1 15.52719,-15.5272 15.527195,15.527195 0 0 1 15.5272,15.5272 z"
       style="color:#000000;display:inline;overflow:visible;visibility:visible;fill:none;stroke:#ffffff;stroke-width:2.19940114;stroke-linecap:round;stroke-linejoin:miter;stroke-miterlimit:4;stroke-dasharray:none;stroke-dashoffset:0;stroke-opacity:1;enable-background:accumulate" />
    <path
       inkscape:connector-curvature="0"
       id="path4152"
       d="m 514.64828,120.10072 0,-15.52692 c 0,-8.57543 -6.95176,-15.5272 -15.52719,-15.5272 -8.57543,0 -15.5272,6.95177 -15.5272,15.5272 l 0,15.52692"
       style="color:#000000;display:inline;overflow:visible;visibility:visible;fill:none;stroke:#ffffff;stroke-width:2.19940114;stroke-linecap:round;stroke-linejoin:miter;stroke-miterlimit:4;stroke-dasharray:none;stroke-dashoffset:0;stroke-opacity:1;enable-background:accumulate" />
    <path
       inkscape:connector-curvature="0"
       id="path4154"
       d="m 473.5473,115.55318 c -2.80987,2.80987 -6.69167,4.54781 -10.97938,4.54781 -8.57543,0 -15.52719,-6.95177 -15.52719,-15.52719 0,-8.57543 6.95176,-15.5272 15.52719,-15.5272 4.28771,0 8.16951,1.73794 10.97938,4.54781"
       style="color:#000000;display:inline;overflow:visible;visibility:visible;fill:none;stroke:#ffffff;stroke-width:2.19940114;stroke-linecap:round;stroke-linejoin:miter;stroke-miterlimit:4;stroke-dasharray:none;stroke-dashoffset:0;stroke-opacity:1;enable-background:accumulate" />
    <path
       inkscape:connector-curvature="0"
       style="color:#000000;display:inline;overflow:visible;visibility:visible;fill:none;stroke:#ffffff;stroke-width:2.19940114;stroke-linecap:round;stroke-linejoin:miter;stroke-miterlimit:4;stroke-dasharray:none;stroke-dashoffset:0;stroke-opacity:1;enable-background:accumulate"
       d="m 483.59389,120.10072 0,-15.52692 0,-34.09742"
       id="path4156" />
    <path
       inkscape:connector-curvature="0"
       style="color:#000000;display:inline;overflow:visible;visibility:visible;fill:none;stroke:#ffffff;stroke-width:2.19940114;stroke-linecap:round;stroke-linejoin:miter;stroke-miterlimit:4;stroke-dasharray:none;stroke-dashoffset:0;stroke-opacity:1;enable-background:accumulate"
       d="m 436.99414,115.55318 c -2.80988,2.80987 -6.69167,4.54781 -10.97939,4.54781 -8.57542,0 -15.52719,-6.95177 -15.52719,-15.52719 0,-8.57543 6.95177,-15.5272 15.52719,-15.5272 8.57543,0 15.5272,6.95177 15.5272,15.5272"
       id="path4158" />
    <path
       inkscape:connector-curvature="0"
       id="path4160"
       d="m 411.52953,104.5969 29.97354,0"
       style="color:#000000;display:inline;overflow:visible;visibility:visible;fill:none;stroke:#ffffff;stroke-width:2.19940114;stroke-linecap:round;stroke-linejoin:miter;stroke-miterlimit:4;stroke-dasharray:none;stroke-dashoffset:0;stroke-opacity:1;enable-background:accumulate" />
  </g>
</svg>
