<svg width="90vw" xmlns:dc="http://purl.org/dc/elements/1.1/" xmlns:cc="http://creativecommons.org/ns#" xmlns:rdf="http://www.w3.org/1999/02/22-rdf-syntax-ns#" xmlns:svg="http://www.w3.org/2000/svg" xmlns="http://www.w3.org/2000/svg" xmlns:sodipodi="http://sodipodi.sourceforge.net/DTD/sodipodi-0.dtd" xmlns:inkscape="http://www.inkscape.org/namespaces/inkscape" height="200mm" viewBox="0 0 142.91329 67.715995" id="svg2" version="1.1" style="enable-background:new" inkscape:version="0.91 r" sodipodi:docname="echo-logo1.svg">
  <sodipodi:namedview pagecolor="#ffffff" bordercolor="#666666" borderopacity="1" objecttolerance="10" gridtolerance="10" guidetolerance="10" inkscape:pageopacity="0" inkscape:pageshadow="2" inkscape:window-width="1920" inkscape:window-height="1005" id="namedview64" showgrid="false" inkscape:zoom="4" inkscape:cx="21.679838" inkscape:cy="5.0034807" inkscape:window-x="0" inkscape:window-y="25" inkscape:window-maximized="1" inkscape:current-layer="svg2" inkscape:snap-object-midpoints="true" fit-margin-top="0" fit-margin-left="0" fit-margin-right="0" fit-margin-bottom="0"></sodipodi:namedview>
  <defs id="defs4"></defs>
  
  
  
  
    
  
  
  
  
  
  <g id="g4189" transform="translate(-409.38786,-69.360932)">
    <path style="color:#000000;display:inline;overflow:visible;visibility:visible;opacity:0.6;fill:none;stroke:#729fcf;stroke-width:2.84228325;stroke-linecap:round;stroke-linejoin:miter;stroke-miterlimit:4;stroke-dasharray:none;stroke-dashoffset:0;stroke-opacity:1;enable-background:accumulate" d="m 448.37941,90.38516 c 3.6312,-3.63118 8.64764,-5.87713 14.18865,-5.87713 11.08201,0 20.06577,8.98375 20.06577,20.06577 0,11.08201 -8.98376,20.06576 -20.06577,20.06576 -11.08201,0 -20.06578,-8.98375 -20.06578,-20.06576" id="path4191" inkscape:connector-curvature="0"></path>
    <path style="color:#000000;display:inline;overflow:visible;visibility:visible;opacity:0.4;fill:none;stroke:#729fcf;stroke-width:3.52802634;stroke-linecap:round;stroke-linejoin:miter;stroke-miterlimit:4;stroke-dasharray:none;stroke-dashoffset:0;stroke-opacity:1;enable-background:accumulate" d="m 444.9561,122.18558 c -4.50722,-4.50729 -7.29505,-10.73403 -7.29505,-17.61188 0,-13.75572 11.15121,-24.90694 24.90693,-24.90694 13.75571,0 24.90693,11.15122 24.90693,24.90694 0,13.75571 -11.15122,24.90693 -24.90693,24.90693" id="path4193" inkscape:connector-curvature="0"></path>
    <path style="color:#000000;display:inline;overflow:visible;visibility:visible;opacity:0.2;fill:none;stroke:#729fcf;stroke-width:4.29948759;stroke-linecap:round;stroke-linejoin:miter;stroke-miterlimit:4;stroke-dasharray:none;stroke-dashoffset:0;stroke-opacity:1;enable-background:accumulate" d="m 484.03103,83.11089 c 5.49273,5.49286 8.89017,13.08117 8.89017,21.46299 0,16.76365 -13.58955,30.35329 -30.3532,30.35329 -16.76362,0 -30.35324,-13.58964 -30.35324,-30.35329 0,-16.76363 13.58962,-30.35326 30.35324,-30.35326" id="path4195" inkscape:connector-curvature="0"></path>
  </g>
  
  
  
  <g id="g4148" transform="translate(-409.38786,-69.361032)" style="stroke:#ffffff;stroke-opacity:1">
    <path inkscape:connector-curvature="0" id="path4150" d="m 551.20145,104.5738 a 15.527195,15.527195 0 0 1 -15.5272,15.52719 15.527195,15.527195 0 0 1 -15.52719,-15.52719 15.527195,15.527195 0 0 1 15.52719,-15.5272 15.527195,15.527195 0 0 1 15.5272,15.5272 z" style="color:#000000;display:inline;overflow:visible;visibility:visible;fill:none;stroke:#ffffff;stroke-width:2.19940114;stroke-linecap:round;stroke-linejoin:miter;stroke-miterlimit:4;stroke-dasharray:none;stroke-dashoffset:0;stroke-opacity:1;enable-background:accumulate"></path>
    <path inkscape:connector-curvature="0" id="path4152" d="m 514.64828,120.10072 0,-15.52692 c 0,-8.57543 -6.95176,-15.5272 -15.52719,-15.5272 -8.57543,0 -15.5272,6.95177 -15.5272,15.5272 l 0,15.52692" style="color:#000000;display:inline;overflow:visible;visibility:visible;fill:none;stroke:#ffffff;stroke-width:2.19940114;stroke-linecap:round;stroke-linejoin:miter;stroke-miterlimit:4;stroke-dasharray:none;stroke-dashoffset:0;stroke-opacity:1;enable-background:accumulate"></path>
    <path id="c" inkscape:connector-curvature="0" d="m 473.5473,115.55318 c -2.80987,2.80987 -6.69167,4.54781 -10.97938,4.54781 -8.57543,0 -15.52719,-6.95177 -15.52719,-15.52719 0,-8.57543 6.95176,-15.5272 15.52719,-15.5272 4.28771,0 8.16951,1.73794 10.97938,4.54781" style="color:#000000;display:inline;overflow:visible;visibility:visible;fill:none;stroke:#ffffff;stroke-width:2.19940114;stroke-linecap:round;stroke-linejoin:miter;stroke-miterlimit:4;stroke-dasharray:none;stroke-dashoffset:0;stroke-opacity:1;enable-background:accumulate"></path>
    <path inkscape:connector-curvature="0" style="color:#000000;display:inline;overflow:visible;visibility:visible;fill:none;stroke:#ffffff;stroke-width:2.19940114;stroke-linecap:round;stroke-linejoin:miter;stroke-miterlimit:4;stroke-dasharray:none;stroke-dashoffset:0;stroke-opacity:1;enable-background:accumulate" d="m 483.59389,120.10072 0,-15.52692 0,-34.09742" id="path4156"></path>
    <path id="e" inkscape:connector-curvature="0" style="color:#000000;display:inline;overflow:visible;visibility:visible;fill:none;stroke:#ffffff;stroke-width:2.19940114;stroke-linecap:round;stroke-linejoin:miter;stroke-miterlimit:4;stroke-dasharray:none;stroke-dashoffset:0;stroke-opacity:1;enable-background:accumulate" d="m 436.99414,115.55318 c -2.80988,2.80987 -6.69167,4.54781 -10.97939,4.54781 -8.57542,0 -15.52719,-6.95177 -15.52719,-15.52719 0,-8.57543 6.95177,-15.5272 15.52719,-15.5272 8.57543,0 15.5272,6.95177 15.5272,15.5272"></path>
    <path id="e2" inkscape:connector-curvature="0" d="m 411.52953,104.5969 29.97354,0" style="color:#000000;display:inline;overflow:visible;visibility:visible;fill:none;stroke:#ffffff;stroke-width:2.19940114;stroke-linecap:round;stroke-linejoin:miter;stroke-miterlimit:4;stroke-dasharray:none;stroke-dashoffset:0;stroke-opacity:1;enable-background:accumulate"></path>
  </g>
</svg>